<mxfile host="app.diagrams.net" modified="2024-05-22T11:32:21.429Z" agent="Mozilla/5.0 (Windows NT 10.0; Win64; x64; rv:126.0) Gecko/20100101 Firefox/126.0" etag="QGvI_CLQ0p78UmGmxEbE" version="24.4.5" type="device">
  <diagram name="Seite-1" id="1yZRw1drmPNi1gYknZbx">
    <mxGraphModel dx="1434" dy="1923" grid="1" gridSize="10" guides="1" tooltips="1" connect="1" arrows="1" fold="1" page="1" pageScale="1" pageWidth="827" pageHeight="1169" math="0" shadow="0">
      <root>
        <mxCell id="0" />
        <mxCell id="1" parent="0" />
        <mxCell id="btvK71mdYl6yS1eCFnb8-5" value="&lt;b style=&quot;&quot;&gt;EventRepository&lt;/b&gt;" style="shape=umlLifeline;perimeter=lifelinePerimeter;whiteSpace=wrap;html=1;container=1;dropTarget=0;collapsible=0;recursiveResize=0;outlineConnect=0;portConstraint=eastwest;newEdgeStyle={&quot;curved&quot;:0,&quot;rounded&quot;:0};" parent="1" vertex="1">
          <mxGeometry x="610" y="-760" width="180" height="550" as="geometry" />
        </mxCell>
        <mxCell id="btvK71mdYl6yS1eCFnb8-68" value="" style="html=1;points=[[0,0,0,0,5],[0,1,0,0,-5],[1,0,0,0,5],[1,1,0,0,-5]];perimeter=orthogonalPerimeter;outlineConnect=0;targetShapes=umlLifeline;portConstraint=eastwest;newEdgeStyle={&quot;curved&quot;:0,&quot;rounded&quot;:0};" parent="btvK71mdYl6yS1eCFnb8-5" vertex="1">
          <mxGeometry x="85" y="410" width="10" height="20" as="geometry" />
        </mxCell>
        <mxCell id="btvK71mdYl6yS1eCFnb8-15" value="" style="html=1;points=[[0,0,0,0,5],[0,1,0,0,-5],[1,0,0,0,5],[1,1,0,0,-5]];perimeter=orthogonalPerimeter;outlineConnect=0;targetShapes=umlLifeline;portConstraint=eastwest;newEdgeStyle={&quot;curved&quot;:0,&quot;rounded&quot;:0};" parent="btvK71mdYl6yS1eCFnb8-5" vertex="1">
          <mxGeometry x="85" y="140" width="10" height="20" as="geometry" />
        </mxCell>
        <mxCell id="btvK71mdYl6yS1eCFnb8-1" value="&lt;span style=&quot;font-weight: 700;&quot;&gt;EventAdministrationController&lt;/span&gt;" style="shape=umlLifeline;perimeter=lifelinePerimeter;whiteSpace=wrap;html=1;container=1;dropTarget=0;collapsible=0;recursiveResize=0;outlineConnect=0;portConstraint=eastwest;newEdgeStyle={&quot;curved&quot;:0,&quot;rounded&quot;:0};" parent="1" vertex="1">
          <mxGeometry x="130" y="-760" width="180" height="550" as="geometry" />
        </mxCell>
        <mxCell id="btvK71mdYl6yS1eCFnb8-7" value="" style="html=1;points=[[0,0,0,0,5],[0,1,0,0,-5],[1,0,0,0,5],[1,1,0,0,-5]];perimeter=orthogonalPerimeter;outlineConnect=0;targetShapes=umlLifeline;portConstraint=eastwest;newEdgeStyle={&quot;curved&quot;:0,&quot;rounded&quot;:0};" parent="btvK71mdYl6yS1eCFnb8-1" vertex="1">
          <mxGeometry x="85" y="61" width="10" height="169" as="geometry" />
        </mxCell>
        <mxCell id="btvK71mdYl6yS1eCFnb8-40" value="" style="html=1;points=[[0,0,0,0,5],[0,1,0,0,-5],[1,0,0,0,5],[1,1,0,0,-5]];perimeter=orthogonalPerimeter;outlineConnect=0;targetShapes=umlLifeline;portConstraint=eastwest;newEdgeStyle={&quot;curved&quot;:0,&quot;rounded&quot;:0};" parent="btvK71mdYl6yS1eCFnb8-1" vertex="1">
          <mxGeometry x="85" y="240" width="10" height="30" as="geometry" />
        </mxCell>
        <mxCell id="btvK71mdYl6yS1eCFnb8-44" value="" style="html=1;points=[[0,0,0,0,5],[0,1,0,0,-5],[1,0,0,0,5],[1,1,0,0,-5]];perimeter=orthogonalPerimeter;outlineConnect=0;targetShapes=umlLifeline;portConstraint=eastwest;newEdgeStyle={&quot;curved&quot;:0,&quot;rounded&quot;:0};" parent="btvK71mdYl6yS1eCFnb8-1" vertex="1">
          <mxGeometry x="85" y="280" width="10" height="190" as="geometry" />
        </mxCell>
        <mxCell id="btvK71mdYl6yS1eCFnb8-58" style="edgeStyle=orthogonalEdgeStyle;rounded=0;orthogonalLoop=1;jettySize=auto;html=1;curved=0;" parent="btvK71mdYl6yS1eCFnb8-1" edge="1">
          <mxGeometry relative="1" as="geometry">
            <mxPoint x="95" y="330" as="sourcePoint" />
            <mxPoint x="95" y="360" as="targetPoint" />
            <Array as="points">
              <mxPoint x="140" y="330" />
              <mxPoint x="140" y="360" />
            </Array>
          </mxGeometry>
        </mxCell>
        <mxCell id="btvK71mdYl6yS1eCFnb8-62" value="19: new Event()" style="edgeLabel;html=1;align=center;verticalAlign=middle;resizable=0;points=[];" parent="btvK71mdYl6yS1eCFnb8-58" vertex="1" connectable="0">
          <mxGeometry x="-0.0822" y="2" relative="1" as="geometry">
            <mxPoint as="offset" />
          </mxGeometry>
        </mxCell>
        <mxCell id="btvK71mdYl6yS1eCFnb8-2" value="" style="shape=umlLifeline;perimeter=lifelinePerimeter;whiteSpace=wrap;html=1;container=1;dropTarget=0;collapsible=0;recursiveResize=0;outlineConnect=0;portConstraint=eastwest;newEdgeStyle={&quot;curved&quot;:0,&quot;rounded&quot;:0};participant=umlActor;" parent="1" vertex="1">
          <mxGeometry x="40" y="-760" width="20" height="540" as="geometry" />
        </mxCell>
        <mxCell id="btvK71mdYl6yS1eCFnb8-6" value="" style="html=1;points=[[0,0,0,0,5],[0,1,0,0,-5],[1,0,0,0,5],[1,1,0,0,-5]];perimeter=orthogonalPerimeter;outlineConnect=0;targetShapes=umlLifeline;portConstraint=eastwest;newEdgeStyle={&quot;curved&quot;:0,&quot;rounded&quot;:0};" parent="btvK71mdYl6yS1eCFnb8-2" vertex="1">
          <mxGeometry x="5" y="61" width="10" height="409" as="geometry" />
        </mxCell>
        <mxCell id="btvK71mdYl6yS1eCFnb8-3" value="Boss" style="text;html=1;align=center;verticalAlign=middle;resizable=0;points=[];autosize=1;strokeColor=none;fillColor=none;" parent="1" vertex="1">
          <mxGeometry x="25" y="-790" width="50" height="30" as="geometry" />
        </mxCell>
        <mxCell id="btvK71mdYl6yS1eCFnb8-4" value="&lt;b style=&quot;&quot;&gt;CinemaShowRepository&lt;/b&gt;" style="shape=umlLifeline;perimeter=lifelinePerimeter;whiteSpace=wrap;html=1;container=1;dropTarget=0;collapsible=0;recursiveResize=0;outlineConnect=0;portConstraint=eastwest;newEdgeStyle={&quot;curved&quot;:0,&quot;rounded&quot;:0};" parent="1" vertex="1">
          <mxGeometry x="370" y="-760" width="180" height="550" as="geometry" />
        </mxCell>
        <mxCell id="btvK71mdYl6yS1eCFnb8-19" style="edgeStyle=orthogonalEdgeStyle;rounded=0;orthogonalLoop=1;jettySize=auto;html=1;curved=0;" parent="btvK71mdYl6yS1eCFnb8-4" edge="1">
          <mxGeometry relative="1" as="geometry">
            <mxPoint x="-145" y="178.99857142857135" as="sourcePoint" />
            <mxPoint x="-145" y="208.48428571428573" as="targetPoint" />
            <Array as="points">
              <mxPoint x="-110" y="179" />
              <mxPoint x="-110" y="209" />
            </Array>
          </mxGeometry>
        </mxCell>
        <mxCell id="btvK71mdYl6yS1eCFnb8-20" value="8: order()" style="edgeLabel;html=1;align=center;verticalAlign=middle;resizable=0;points=[];" parent="btvK71mdYl6yS1eCFnb8-19" vertex="1" connectable="0">
          <mxGeometry x="-0.1139" y="-1" relative="1" as="geometry">
            <mxPoint y="2" as="offset" />
          </mxGeometry>
        </mxCell>
        <mxCell id="btvK71mdYl6yS1eCFnb8-10" value="" style="html=1;points=[[0,0,0,0,5],[0,1,0,0,-5],[1,0,0,0,5],[1,1,0,0,-5]];perimeter=orthogonalPerimeter;outlineConnect=0;targetShapes=umlLifeline;portConstraint=eastwest;newEdgeStyle={&quot;curved&quot;:0,&quot;rounded&quot;:0};" parent="btvK71mdYl6yS1eCFnb8-4" vertex="1">
          <mxGeometry x="85" y="110" width="10" height="20" as="geometry" />
        </mxCell>
        <mxCell id="btvK71mdYl6yS1eCFnb8-11" style="edgeStyle=orthogonalEdgeStyle;rounded=0;orthogonalLoop=1;jettySize=auto;html=1;curved=0;" parent="btvK71mdYl6yS1eCFnb8-4" target="btvK71mdYl6yS1eCFnb8-10" edge="1">
          <mxGeometry relative="1" as="geometry">
            <mxPoint x="-145" y="109" as="sourcePoint" />
            <mxPoint x="80" y="99" as="targetPoint" />
            <Array as="points">
              <mxPoint x="-30" y="109" />
              <mxPoint x="-30" y="110" />
            </Array>
          </mxGeometry>
        </mxCell>
        <mxCell id="btvK71mdYl6yS1eCFnb8-13" value="&lt;font style=&quot;font-size: 10px;&quot;&gt;4: c&lt;span style=&quot;text-wrap: wrap; background-color: rgb(251, 251, 251);&quot;&gt;inemaShowRepository.findAll&lt;/span&gt;()&lt;/font&gt;" style="edgeLabel;html=1;align=center;verticalAlign=middle;resizable=0;points=[];" parent="btvK71mdYl6yS1eCFnb8-11" vertex="1" connectable="0">
          <mxGeometry x="-0.1139" y="-1" relative="1" as="geometry">
            <mxPoint x="23" as="offset" />
          </mxGeometry>
        </mxCell>
        <mxCell id="btvK71mdYl6yS1eCFnb8-14" value="" style="html=1;verticalAlign=bottom;endArrow=open;dashed=1;endSize=8;curved=0;rounded=0;" parent="btvK71mdYl6yS1eCFnb8-4" edge="1">
          <mxGeometry relative="1" as="geometry">
            <mxPoint x="79.50000000000023" y="119" as="sourcePoint" />
            <mxPoint x="-145" y="119" as="targetPoint" />
          </mxGeometry>
        </mxCell>
        <mxCell id="btvK71mdYl6yS1eCFnb8-81" value="5:" style="edgeLabel;html=1;align=center;verticalAlign=middle;resizable=0;points=[];" parent="btvK71mdYl6yS1eCFnb8-14" vertex="1" connectable="0">
          <mxGeometry x="0.6762" y="3" relative="1" as="geometry">
            <mxPoint x="-1" y="-2" as="offset" />
          </mxGeometry>
        </mxCell>
        <mxCell id="btvK71mdYl6yS1eCFnb8-16" style="edgeStyle=orthogonalEdgeStyle;rounded=0;orthogonalLoop=1;jettySize=auto;html=1;curved=0;" parent="btvK71mdYl6yS1eCFnb8-4" target="btvK71mdYl6yS1eCFnb8-15" edge="1">
          <mxGeometry relative="1" as="geometry">
            <mxPoint x="-145" y="140" as="sourcePoint" />
            <mxPoint x="149" y="139" as="targetPoint" />
            <Array as="points">
              <mxPoint x="90" y="140" />
              <mxPoint x="90" y="140" />
            </Array>
          </mxGeometry>
        </mxCell>
        <mxCell id="btvK71mdYl6yS1eCFnb8-17" value="6: e&lt;span style=&quot;font-size: 12px; text-wrap: wrap; background-color: rgb(251, 251, 251);&quot;&gt;ventRepository.findAll&lt;/span&gt;()" style="edgeLabel;html=1;align=center;verticalAlign=middle;resizable=0;points=[];" parent="btvK71mdYl6yS1eCFnb8-16" vertex="1" connectable="0">
          <mxGeometry x="-0.1139" y="-1" relative="1" as="geometry">
            <mxPoint as="offset" />
          </mxGeometry>
        </mxCell>
        <mxCell id="btvK71mdYl6yS1eCFnb8-18" value="" style="html=1;verticalAlign=bottom;endArrow=open;dashed=1;endSize=8;curved=0;rounded=0;" parent="btvK71mdYl6yS1eCFnb8-4" edge="1">
          <mxGeometry relative="1" as="geometry">
            <mxPoint x="325" y="150.08" as="sourcePoint" />
            <mxPoint x="-145" y="150.08" as="targetPoint" />
            <Array as="points">
              <mxPoint x="90" y="150.08" />
            </Array>
          </mxGeometry>
        </mxCell>
        <mxCell id="btvK71mdYl6yS1eCFnb8-82" value="7:" style="edgeLabel;html=1;align=center;verticalAlign=middle;resizable=0;points=[];" parent="btvK71mdYl6yS1eCFnb8-18" vertex="1" connectable="0">
          <mxGeometry x="0.5167" relative="1" as="geometry">
            <mxPoint x="11" as="offset" />
          </mxGeometry>
        </mxCell>
        <mxCell id="btvK71mdYl6yS1eCFnb8-75" value="" style="html=1;points=[[0,0,0,0,5],[0,1,0,0,-5],[1,0,0,0,5],[1,1,0,0,-5]];perimeter=orthogonalPerimeter;outlineConnect=0;targetShapes=umlLifeline;portConstraint=eastwest;newEdgeStyle={&quot;curved&quot;:0,&quot;rounded&quot;:0};" parent="btvK71mdYl6yS1eCFnb8-4" vertex="1">
          <mxGeometry x="85" y="440" width="10" height="20" as="geometry" />
        </mxCell>
        <mxCell id="btvK71mdYl6yS1eCFnb8-76" style="edgeStyle=orthogonalEdgeStyle;rounded=0;orthogonalLoop=1;jettySize=auto;html=1;curved=0;" parent="btvK71mdYl6yS1eCFnb8-4" source="btvK71mdYl6yS1eCFnb8-44" edge="1">
          <mxGeometry relative="1" as="geometry">
            <mxPoint x="-385" y="440" as="sourcePoint" />
            <mxPoint x="85" y="440" as="targetPoint" />
            <Array as="points">
              <mxPoint x="-30" y="440" />
              <mxPoint x="85" y="441" />
            </Array>
          </mxGeometry>
        </mxCell>
        <mxCell id="btvK71mdYl6yS1eCFnb8-77" value="&lt;font style=&quot;font-size: 11px;&quot;&gt;24:&amp;nbsp;c&lt;span style=&quot;text-wrap: wrap; background-color: rgb(251, 251, 251);&quot;&gt;inemaShowRepository.&lt;/span&gt;save()&lt;/font&gt;" style="edgeLabel;html=1;align=center;verticalAlign=middle;resizable=0;points=[];" parent="btvK71mdYl6yS1eCFnb8-76" vertex="1" connectable="0">
          <mxGeometry x="-0.1139" y="-1" relative="1" as="geometry">
            <mxPoint x="23" y="-1" as="offset" />
          </mxGeometry>
        </mxCell>
        <mxCell id="btvK71mdYl6yS1eCFnb8-78" value="" style="html=1;verticalAlign=bottom;endArrow=open;dashed=1;endSize=8;curved=0;rounded=0;" parent="btvK71mdYl6yS1eCFnb8-4" target="btvK71mdYl6yS1eCFnb8-44" edge="1">
          <mxGeometry relative="1" as="geometry">
            <mxPoint x="84.99999999999977" y="450" as="sourcePoint" />
            <mxPoint x="-384.99999999999994" y="449.9999999999999" as="targetPoint" />
            <Array as="points" />
          </mxGeometry>
        </mxCell>
        <mxCell id="btvK71mdYl6yS1eCFnb8-93" value="25:" style="edgeLabel;html=1;align=center;verticalAlign=middle;resizable=0;points=[];" parent="btvK71mdYl6yS1eCFnb8-78" vertex="1" connectable="0">
          <mxGeometry x="0.5106" relative="1" as="geometry">
            <mxPoint x="-21" as="offset" />
          </mxGeometry>
        </mxCell>
        <mxCell id="btvK71mdYl6yS1eCFnb8-8" style="edgeStyle=orthogonalEdgeStyle;rounded=0;orthogonalLoop=1;jettySize=auto;html=1;curved=0;exitX=1;exitY=0;exitDx=0;exitDy=5;exitPerimeter=0;entryX=0;entryY=0;entryDx=0;entryDy=5;entryPerimeter=0;" parent="1" source="btvK71mdYl6yS1eCFnb8-6" target="btvK71mdYl6yS1eCFnb8-7" edge="1">
          <mxGeometry relative="1" as="geometry" />
        </mxCell>
        <mxCell id="btvK71mdYl6yS1eCFnb8-9" value="1: getEvents()" style="edgeLabel;html=1;align=center;verticalAlign=middle;resizable=0;points=[];" parent="btvK71mdYl6yS1eCFnb8-8" vertex="1" connectable="0">
          <mxGeometry x="-0.1125" y="4" relative="1" as="geometry">
            <mxPoint y="-1" as="offset" />
          </mxGeometry>
        </mxCell>
        <mxCell id="btvK71mdYl6yS1eCFnb8-25" value="" style="html=1;verticalAlign=bottom;endArrow=open;dashed=1;endSize=8;curved=0;rounded=0;" parent="1" edge="1">
          <mxGeometry relative="1" as="geometry">
            <mxPoint x="215" y="-539.9999999999998" as="sourcePoint" />
            <mxPoint x="55" y="-539.9999999999998" as="targetPoint" />
          </mxGeometry>
        </mxCell>
        <mxCell id="btvK71mdYl6yS1eCFnb8-85" value="&lt;font style=&quot;font-size: 8px;&quot; face=&quot;Helvetica&quot;&gt;9:&amp;nbsp;manage-rooms-boss-renderer.html&lt;/font&gt;" style="edgeLabel;html=1;align=center;verticalAlign=middle;resizable=0;points=[];" parent="btvK71mdYl6yS1eCFnb8-25" vertex="1" connectable="0">
          <mxGeometry x="0.2914" y="-2" relative="1" as="geometry">
            <mxPoint x="28" as="offset" />
          </mxGeometry>
        </mxCell>
        <mxCell id="btvK71mdYl6yS1eCFnb8-26" style="edgeStyle=orthogonalEdgeStyle;rounded=0;orthogonalLoop=1;jettySize=auto;html=1;curved=0;" parent="1" edge="1">
          <mxGeometry relative="1" as="geometry">
            <mxPoint x="55" y="-520" as="sourcePoint" />
            <mxPoint x="215" y="-520" as="targetPoint" />
            <Array as="points">
              <mxPoint x="170" y="-520" />
              <mxPoint x="170" y="-520" />
            </Array>
          </mxGeometry>
        </mxCell>
        <mxCell id="btvK71mdYl6yS1eCFnb8-27" value="10: getEventPage()" style="edgeLabel;html=1;align=center;verticalAlign=middle;resizable=0;points=[];" parent="btvK71mdYl6yS1eCFnb8-26" vertex="1" connectable="0">
          <mxGeometry x="-0.1125" y="4" relative="1" as="geometry">
            <mxPoint y="-1" as="offset" />
          </mxGeometry>
        </mxCell>
        <mxCell id="btvK71mdYl6yS1eCFnb8-28" value="&lt;b style=&quot;&quot;&gt;CinemaHallRepository&lt;/b&gt;" style="shape=umlLifeline;perimeter=lifelinePerimeter;whiteSpace=wrap;html=1;container=1;dropTarget=0;collapsible=0;recursiveResize=0;outlineConnect=0;portConstraint=eastwest;newEdgeStyle={&quot;curved&quot;:0,&quot;rounded&quot;:0};" parent="1" vertex="1">
          <mxGeometry x="850" y="-760" width="180" height="560" as="geometry" />
        </mxCell>
        <mxCell id="btvK71mdYl6yS1eCFnb8-34" value="" style="html=1;points=[[0,0,0,0,5],[0,1,0,0,-5],[1,0,0,0,5],[1,1,0,0,-5]];perimeter=orthogonalPerimeter;outlineConnect=0;targetShapes=umlLifeline;portConstraint=eastwest;newEdgeStyle={&quot;curved&quot;:0,&quot;rounded&quot;:0};" parent="btvK71mdYl6yS1eCFnb8-28" vertex="1">
          <mxGeometry x="85" y="70" width="10" height="20" as="geometry" />
        </mxCell>
        <mxCell id="btvK71mdYl6yS1eCFnb8-36" value="" style="html=1;points=[[0,0,0,0,5],[0,1,0,0,-5],[1,0,0,0,5],[1,1,0,0,-5]];perimeter=orthogonalPerimeter;outlineConnect=0;targetShapes=umlLifeline;portConstraint=eastwest;newEdgeStyle={&quot;curved&quot;:0,&quot;rounded&quot;:0};" parent="btvK71mdYl6yS1eCFnb8-28" vertex="1">
          <mxGeometry x="85" y="240" width="10" height="20" as="geometry" />
        </mxCell>
        <mxCell id="btvK71mdYl6yS1eCFnb8-46" value="" style="html=1;points=[[0,0,0,0,5],[0,1,0,0,-5],[1,0,0,0,5],[1,1,0,0,-5]];perimeter=orthogonalPerimeter;outlineConnect=0;targetShapes=umlLifeline;portConstraint=eastwest;newEdgeStyle={&quot;curved&quot;:0,&quot;rounded&quot;:0};" parent="btvK71mdYl6yS1eCFnb8-28" vertex="1">
          <mxGeometry x="85" y="280" width="10" height="20" as="geometry" />
        </mxCell>
        <mxCell id="btvK71mdYl6yS1eCFnb8-47" style="edgeStyle=orthogonalEdgeStyle;rounded=0;orthogonalLoop=1;jettySize=auto;html=1;curved=0;" parent="btvK71mdYl6yS1eCFnb8-28" edge="1">
          <mxGeometry relative="1" as="geometry">
            <mxPoint x="-625" y="280" as="sourcePoint" />
            <mxPoint x="85" y="280" as="targetPoint" />
            <Array as="points">
              <mxPoint x="-90" y="280" />
              <mxPoint x="-90" y="280" />
            </Array>
          </mxGeometry>
        </mxCell>
        <mxCell id="btvK71mdYl6yS1eCFnb8-48" value="15: c&lt;span style=&quot;text-wrap: wrap; font-size: 12px; background-color: rgb(251, 251, 251);&quot;&gt;inemaHallRepository.findAll&lt;/span&gt;()" style="edgeLabel;html=1;align=center;verticalAlign=middle;resizable=0;points=[];" parent="btvK71mdYl6yS1eCFnb8-47" vertex="1" connectable="0">
          <mxGeometry x="-0.1139" y="-1" relative="1" as="geometry">
            <mxPoint as="offset" />
          </mxGeometry>
        </mxCell>
        <mxCell id="btvK71mdYl6yS1eCFnb8-49" value="" style="html=1;verticalAlign=bottom;endArrow=open;dashed=1;endSize=8;curved=0;rounded=0;" parent="btvK71mdYl6yS1eCFnb8-28" edge="1">
          <mxGeometry relative="1" as="geometry">
            <mxPoint x="85" y="290" as="sourcePoint" />
            <mxPoint x="-625" y="290" as="targetPoint" />
            <Array as="points">
              <mxPoint x="-285" y="290" />
            </Array>
          </mxGeometry>
        </mxCell>
        <mxCell id="btvK71mdYl6yS1eCFnb8-89" value="16:" style="edgeLabel;html=1;align=center;verticalAlign=middle;resizable=0;points=[];" parent="btvK71mdYl6yS1eCFnb8-49" vertex="1" connectable="0">
          <mxGeometry x="0.4275" y="1" relative="1" as="geometry">
            <mxPoint x="12" as="offset" />
          </mxGeometry>
        </mxCell>
        <mxCell id="btvK71mdYl6yS1eCFnb8-67" value="" style="html=1;points=[[0,0,0,0,5],[0,1,0,0,-5],[1,0,0,0,5],[1,1,0,0,-5]];perimeter=orthogonalPerimeter;outlineConnect=0;targetShapes=umlLifeline;portConstraint=eastwest;newEdgeStyle={&quot;curved&quot;:0,&quot;rounded&quot;:0};" parent="btvK71mdYl6yS1eCFnb8-28" vertex="1">
          <mxGeometry x="85" y="370" width="10" height="20" as="geometry" />
        </mxCell>
        <mxCell id="btvK71mdYl6yS1eCFnb8-96" value="" style="html=1;points=[[0,0,0,0,5],[0,1,0,0,-5],[1,0,0,0,5],[1,1,0,0,-5]];perimeter=orthogonalPerimeter;outlineConnect=0;targetShapes=umlLifeline;portConstraint=eastwest;newEdgeStyle={&quot;curved&quot;:0,&quot;rounded&quot;:0};" parent="btvK71mdYl6yS1eCFnb8-28" vertex="1">
          <mxGeometry x="85" y="310" width="10" height="20" as="geometry" />
        </mxCell>
        <mxCell id="btvK71mdYl6yS1eCFnb8-30" style="edgeStyle=orthogonalEdgeStyle;rounded=0;orthogonalLoop=1;jettySize=auto;html=1;curved=0;" parent="1" source="btvK71mdYl6yS1eCFnb8-7" target="btvK71mdYl6yS1eCFnb8-34" edge="1">
          <mxGeometry relative="1" as="geometry">
            <mxPoint x="250" y="-680" as="sourcePoint" />
            <mxPoint x="480" y="-679" as="targetPoint" />
            <Array as="points">
              <mxPoint x="760" y="-690" />
              <mxPoint x="760" y="-690" />
            </Array>
          </mxGeometry>
        </mxCell>
        <mxCell id="btvK71mdYl6yS1eCFnb8-31" value="2: c&lt;span style=&quot;font-size: 12px; text-wrap: wrap; background-color: rgb(251, 251, 251);&quot;&gt;inemaHallRepository.findAll&lt;/span&gt;()" style="edgeLabel;html=1;align=center;verticalAlign=middle;resizable=0;points=[];" parent="btvK71mdYl6yS1eCFnb8-30" vertex="1" connectable="0">
          <mxGeometry x="-0.1139" y="-1" relative="1" as="geometry">
            <mxPoint as="offset" />
          </mxGeometry>
        </mxCell>
        <mxCell id="btvK71mdYl6yS1eCFnb8-35" value="" style="html=1;verticalAlign=bottom;endArrow=open;dashed=1;endSize=8;curved=0;rounded=0;" parent="1" edge="1">
          <mxGeometry relative="1" as="geometry">
            <mxPoint x="935" y="-680" as="sourcePoint" />
            <mxPoint x="225" y="-680" as="targetPoint" />
            <Array as="points">
              <mxPoint x="565" y="-680" />
            </Array>
          </mxGeometry>
        </mxCell>
        <mxCell id="btvK71mdYl6yS1eCFnb8-80" value="3:" style="edgeLabel;html=1;align=center;verticalAlign=middle;resizable=0;points=[];" parent="btvK71mdYl6yS1eCFnb8-35" vertex="1" connectable="0">
          <mxGeometry x="0.5615" y="-1" relative="1" as="geometry">
            <mxPoint x="59" y="1" as="offset" />
          </mxGeometry>
        </mxCell>
        <mxCell id="btvK71mdYl6yS1eCFnb8-41" value="" style="html=1;verticalAlign=bottom;endArrow=open;dashed=1;endSize=8;curved=0;rounded=0;exitX=0;exitY=1;exitDx=0;exitDy=-5;exitPerimeter=0;" parent="1" source="btvK71mdYl6yS1eCFnb8-40" target="btvK71mdYl6yS1eCFnb8-6" edge="1">
          <mxGeometry relative="1" as="geometry">
            <mxPoint x="210" y="-489.9999999999998" as="sourcePoint" />
            <mxPoint x="50" y="-489.9999999999998" as="targetPoint" />
          </mxGeometry>
        </mxCell>
        <mxCell id="btvK71mdYl6yS1eCFnb8-88" value="&lt;font style=&quot;font-size: 7px;&quot; face=&quot;Helvetica&quot;&gt;13:&amp;nbsp;manage-rooms-boss-renderer-empty.html&lt;/font&gt;" style="edgeLabel;html=1;align=center;verticalAlign=middle;resizable=0;points=[];" parent="btvK71mdYl6yS1eCFnb8-41" vertex="1" connectable="0">
          <mxGeometry x="0.2569" y="1" relative="1" as="geometry">
            <mxPoint x="26" as="offset" />
          </mxGeometry>
        </mxCell>
        <mxCell id="btvK71mdYl6yS1eCFnb8-42" style="edgeStyle=orthogonalEdgeStyle;rounded=0;orthogonalLoop=1;jettySize=auto;html=1;curved=0;entryX=0;entryY=0;entryDx=0;entryDy=5;entryPerimeter=0;" parent="1" source="btvK71mdYl6yS1eCFnb8-6" target="btvK71mdYl6yS1eCFnb8-44" edge="1">
          <mxGeometry relative="1" as="geometry">
            <mxPoint x="70" y="-465" as="sourcePoint" />
            <mxPoint x="210" y="-470" as="targetPoint" />
            <Array as="points">
              <mxPoint x="90" y="-475" />
              <mxPoint x="90" y="-475" />
            </Array>
          </mxGeometry>
        </mxCell>
        <mxCell id="btvK71mdYl6yS1eCFnb8-43" value="14: addEvent()" style="edgeLabel;html=1;align=center;verticalAlign=middle;resizable=0;points=[];" parent="btvK71mdYl6yS1eCFnb8-42" vertex="1" connectable="0">
          <mxGeometry x="-0.1125" y="4" relative="1" as="geometry">
            <mxPoint y="-1" as="offset" />
          </mxGeometry>
        </mxCell>
        <mxCell id="btvK71mdYl6yS1eCFnb8-55" style="edgeStyle=orthogonalEdgeStyle;rounded=0;orthogonalLoop=1;jettySize=auto;html=1;curved=0;" parent="1" edge="1">
          <mxGeometry relative="1" as="geometry">
            <mxPoint x="225" y="-450" as="sourcePoint" />
            <mxPoint x="934.9999999999998" y="-450" as="targetPoint" />
            <Array as="points">
              <mxPoint x="760" y="-450" />
              <mxPoint x="760" y="-450" />
            </Array>
          </mxGeometry>
        </mxCell>
        <mxCell id="btvK71mdYl6yS1eCFnb8-56" value="17: c&lt;span style=&quot;text-wrap: wrap; font-size: 12px; background-color: rgb(251, 251, 251);&quot;&gt;inemaHallRepository.&lt;/span&gt;findById()" style="edgeLabel;html=1;align=center;verticalAlign=middle;resizable=0;points=[];" parent="btvK71mdYl6yS1eCFnb8-55" vertex="1" connectable="0">
          <mxGeometry x="-0.1139" y="-1" relative="1" as="geometry">
            <mxPoint as="offset" />
          </mxGeometry>
        </mxCell>
        <mxCell id="btvK71mdYl6yS1eCFnb8-57" value="" style="html=1;verticalAlign=bottom;endArrow=open;dashed=1;endSize=8;curved=0;rounded=0;" parent="1" edge="1">
          <mxGeometry relative="1" as="geometry">
            <mxPoint x="935" y="-440" as="sourcePoint" />
            <mxPoint x="225" y="-440" as="targetPoint" />
            <Array as="points">
              <mxPoint x="565" y="-440" />
            </Array>
          </mxGeometry>
        </mxCell>
        <mxCell id="btvK71mdYl6yS1eCFnb8-91" value="18:" style="edgeLabel;html=1;align=center;verticalAlign=middle;resizable=0;points=[];" parent="btvK71mdYl6yS1eCFnb8-57" vertex="1" connectable="0">
          <mxGeometry x="0.513" y="1" relative="1" as="geometry">
            <mxPoint x="32" as="offset" />
          </mxGeometry>
        </mxCell>
        <mxCell id="btvK71mdYl6yS1eCFnb8-64" style="edgeStyle=orthogonalEdgeStyle;rounded=0;orthogonalLoop=1;jettySize=auto;html=1;curved=0;" parent="1" source="btvK71mdYl6yS1eCFnb8-44" target="btvK71mdYl6yS1eCFnb8-67" edge="1">
          <mxGeometry relative="1" as="geometry">
            <mxPoint x="230" y="-390" as="sourcePoint" />
            <mxPoint x="940" y="-390" as="targetPoint" />
            <Array as="points">
              <mxPoint x="580" y="-389" />
              <mxPoint x="580" y="-389" />
            </Array>
          </mxGeometry>
        </mxCell>
        <mxCell id="btvK71mdYl6yS1eCFnb8-65" value="&lt;font style=&quot;font-size: 12px;&quot;&gt;20: c&lt;span style=&quot;text-wrap: wrap; background-color: rgb(251, 251, 251);&quot;&gt;inemaHallRepository.&lt;/span&gt;save()&lt;/font&gt;" style="edgeLabel;html=1;align=center;verticalAlign=middle;resizable=0;points=[];" parent="btvK71mdYl6yS1eCFnb8-64" vertex="1" connectable="0">
          <mxGeometry x="-0.1139" y="-1" relative="1" as="geometry">
            <mxPoint as="offset" />
          </mxGeometry>
        </mxCell>
        <mxCell id="btvK71mdYl6yS1eCFnb8-66" value="" style="html=1;verticalAlign=bottom;endArrow=open;dashed=1;endSize=8;curved=0;rounded=0;" parent="1" edge="1">
          <mxGeometry relative="1" as="geometry">
            <mxPoint x="935" y="-380" as="sourcePoint" />
            <mxPoint x="225" y="-379" as="targetPoint" />
            <Array as="points">
              <mxPoint x="570" y="-379" />
            </Array>
          </mxGeometry>
        </mxCell>
        <mxCell id="btvK71mdYl6yS1eCFnb8-94" value="21:" style="edgeLabel;html=1;align=center;verticalAlign=middle;resizable=0;points=[];" parent="btvK71mdYl6yS1eCFnb8-66" vertex="1" connectable="0">
          <mxGeometry x="0.4323" y="2" relative="1" as="geometry">
            <mxPoint x="14" y="-3" as="offset" />
          </mxGeometry>
        </mxCell>
        <mxCell id="btvK71mdYl6yS1eCFnb8-69" style="edgeStyle=orthogonalEdgeStyle;rounded=0;orthogonalLoop=1;jettySize=auto;html=1;curved=0;" parent="1" edge="1">
          <mxGeometry relative="1" as="geometry">
            <mxPoint x="225" y="-350" as="sourcePoint" />
            <mxPoint x="695" y="-350" as="targetPoint" />
            <Array as="points">
              <mxPoint x="340" y="-350" />
              <mxPoint x="340" y="-350" />
            </Array>
          </mxGeometry>
        </mxCell>
        <mxCell id="btvK71mdYl6yS1eCFnb8-70" value="&lt;font style=&quot;font-size: 12px;&quot;&gt;22: e&lt;span style=&quot;text-wrap: wrap; background-color: rgb(251, 251, 251);&quot;&gt;ventRepository.&lt;/span&gt;save()&lt;/font&gt;" style="edgeLabel;html=1;align=center;verticalAlign=middle;resizable=0;points=[];" parent="btvK71mdYl6yS1eCFnb8-69" vertex="1" connectable="0">
          <mxGeometry x="-0.1139" y="-1" relative="1" as="geometry">
            <mxPoint as="offset" />
          </mxGeometry>
        </mxCell>
        <mxCell id="btvK71mdYl6yS1eCFnb8-37" style="edgeStyle=orthogonalEdgeStyle;rounded=0;orthogonalLoop=1;jettySize=auto;html=1;curved=0;" parent="1" edge="1">
          <mxGeometry relative="1" as="geometry">
            <mxPoint x="225" y="-520" as="sourcePoint" />
            <mxPoint x="935" y="-520" as="targetPoint" />
            <Array as="points">
              <mxPoint x="760" y="-520" />
              <mxPoint x="760" y="-520" />
            </Array>
          </mxGeometry>
        </mxCell>
        <mxCell id="btvK71mdYl6yS1eCFnb8-38" value="11: c&lt;span style=&quot;text-wrap: wrap; font-size: 12px; background-color: rgb(251, 251, 251);&quot;&gt;inemaHallRepository.findAll&lt;/span&gt;()" style="edgeLabel;html=1;align=center;verticalAlign=middle;resizable=0;points=[];" parent="btvK71mdYl6yS1eCFnb8-37" vertex="1" connectable="0">
          <mxGeometry x="-0.1139" y="-1" relative="1" as="geometry">
            <mxPoint as="offset" />
          </mxGeometry>
        </mxCell>
        <mxCell id="btvK71mdYl6yS1eCFnb8-39" value="" style="html=1;verticalAlign=bottom;endArrow=open;dashed=1;endSize=8;curved=0;rounded=0;" parent="1" edge="1">
          <mxGeometry relative="1" as="geometry">
            <mxPoint x="935" y="-510.2" as="sourcePoint" />
            <mxPoint x="225" y="-510.2" as="targetPoint" />
            <Array as="points">
              <mxPoint x="565" y="-510.2" />
            </Array>
          </mxGeometry>
        </mxCell>
        <mxCell id="btvK71mdYl6yS1eCFnb8-86" value="12:" style="edgeLabel;html=1;align=center;verticalAlign=middle;resizable=0;points=[];" parent="btvK71mdYl6yS1eCFnb8-39" vertex="1" connectable="0">
          <mxGeometry x="0.5382" y="2" relative="1" as="geometry">
            <mxPoint x="51" y="-2" as="offset" />
          </mxGeometry>
        </mxCell>
        <mxCell id="btvK71mdYl6yS1eCFnb8-71" value="" style="html=1;verticalAlign=bottom;endArrow=open;dashed=1;endSize=8;curved=0;rounded=0;" parent="1" edge="1">
          <mxGeometry relative="1" as="geometry">
            <mxPoint x="694.9999999999998" y="-340" as="sourcePoint" />
            <mxPoint x="225.00000000000006" y="-340.0000000000001" as="targetPoint" />
            <Array as="points" />
          </mxGeometry>
        </mxCell>
        <mxCell id="btvK71mdYl6yS1eCFnb8-92" value="23:" style="edgeLabel;html=1;align=center;verticalAlign=middle;resizable=0;points=[];" parent="btvK71mdYl6yS1eCFnb8-71" vertex="1" connectable="0">
          <mxGeometry x="0.5173" y="-2" relative="1" as="geometry">
            <mxPoint x="12" y="2" as="offset" />
          </mxGeometry>
        </mxCell>
        <mxCell id="btvK71mdYl6yS1eCFnb8-79" value="" style="html=1;verticalAlign=bottom;endArrow=open;dashed=1;endSize=8;curved=0;rounded=0;" parent="1" edge="1">
          <mxGeometry relative="1" as="geometry">
            <mxPoint x="215" y="-300" as="sourcePoint" />
            <mxPoint x="55" y="-300" as="targetPoint" />
          </mxGeometry>
        </mxCell>
        <mxCell id="btvK71mdYl6yS1eCFnb8-95" value="&lt;font style=&quot;font-size: 6px;&quot;&gt;26:manage-rooms-boss-renderer-success.html&lt;/font&gt;" style="edgeLabel;html=1;align=center;verticalAlign=middle;resizable=0;points=[];" parent="btvK71mdYl6yS1eCFnb8-79" vertex="1" connectable="0">
          <mxGeometry x="0.1119" y="-2" relative="1" as="geometry">
            <mxPoint x="14" y="2" as="offset" />
          </mxGeometry>
        </mxCell>
      </root>
    </mxGraphModel>
  </diagram>
</mxfile>
